<svg xmlns="http://www.w3.org/2000/svg" xmlns:xlink="http://www.w3.org/1999/xlink" width="30" height="29.899" viewBox="0 0 30 29.899">
  <defs>
    <linearGradient id="linear-gradient" x1="0.568" y1="0.777" x2="-2.272" y2="-14.099" gradientUnits="objectBoundingBox">
      <stop offset="0" stop-color="#286346"/>
      <stop offset="0.507" stop-color="#5ae29e"/>
      <stop offset="1" stop-color="#a2e8c5"/>
    </linearGradient>
    <linearGradient id="linear-gradient-2" x1="0.727" y1="1.378" x2="-1.311" y2="-7.136" xlink:href="#linear-gradient"/>
    <linearGradient id="linear-gradient-3" x1="1.251" y1="1.974" x2="-0.55" y2="-1.708" xlink:href="#linear-gradient"/>
    <linearGradient id="linear-gradient-4" x1="2.625" y1="4.882" x2="-0.727" y2="-1.991" xlink:href="#linear-gradient"/>
    <linearGradient id="linear-gradient-5" x1="1.002" y1="1.632" x2="-0.711" y2="-2.176" xlink:href="#linear-gradient"/>
    <linearGradient id="linear-gradient-6" x1="0.243" y1="1.01" x2="0.806" y2="0.2" xlink:href="#linear-gradient"/>
    <linearGradient id="linear-gradient-7" x1="0.5" y1="1" x2="0.5" y2="0" xlink:href="#linear-gradient"/>
  </defs>
  <g id="그룹_2766" data-name="그룹 2766" transform="translate(-2136.454 -960.061)">
    <g id="그룹_2765" data-name="그룹 2765">
      <path id="패스_20828" data-name="패스 20828" d="M2160.924,983.9a12.111,12.111,0,0,1-10.654,1.841c-3.4-1.03-4.576,2.034-2.959,3.646a15.273,15.273,0,0,0,4.143.572,14.979,14.979,0,0,0,11.051-4.843c.733-.863-.309-2.149-1.581-1.216Z" fill-rule="evenodd" fill="url(#linear-gradient)"/>
      <path id="패스_20829" data-name="패스 20829" d="M2145.676,983.241a3.918,3.918,0,0,0,1.635,6.147c-1.617-1.612-.442-4.676,2.959-3.646h0a12.111,12.111,0,0,0,10.654-1.841c1.272-.933,2.314.353,1.581,1.216a15.067,15.067,0,0,0,2.341-3.365c1.8-5.046-14.956-.8-19.17,1.489" fill-rule="evenodd" fill="url(#linear-gradient-2)"/>
      <path id="패스_20830" data-name="패스 20830" d="M2151.224,969.608c4.7-1.841,9.329-3.179,10.7-5.3a14.971,14.971,0,1,0-20.786,21.55,7.944,7.944,0,0,1-1.581-5.742h0c.379-3.549,2.818-5.988,5.962-7.847m3.719-8.1c-6.015,1.594-10.786,6.042-11.607,11.352-.159-7.151,5.088-13.263,11.687-13.8,2.8-.229,2.553,1.752-.08,2.448Z" fill-rule="evenodd" fill="url(#linear-gradient-3)"/>
      <path id="패스_20831" data-name="패스 20831" d="M2137.629,975.517c.821-5.31,5.592-9.758,11.607-11.352,2.633-.7,2.88-2.677.08-2.448-6.6.537-11.846,6.649-11.687,13.8Z" fill-rule="evenodd" fill="url(#linear-gradient-4)"/>
      <path id="패스_20832" data-name="패스 20832" d="M2166.454,975.006a14.89,14.89,0,0,0-4.532-10.7c-1.369,2.123-6,3.461-10.7,5.3-10.253,3.9-11.29,6.957-11.67,10.506a7.949,7.949,0,0,0,1.582,5.742,14.891,14.891,0,0,0,6.175,3.532,3.929,3.929,0,0,1-2.394-2.66l-.01-.036a3.575,3.575,0,0,1,2.173-4.1c5.65-2.322,19.408-5.434,17.766-.837A14.9,14.9,0,0,0,2166.454,975.006Z" fill-rule="evenodd" fill="url(#linear-gradient-5)"/>
    </g>
    <path id="패스_20833" data-name="패스 20833" d="M2156.3,973.41a1.254,1.254,0,0,0-.194-.015,1.653,1.653,0,0,0-1.033.393,1.33,1.33,0,0,0-1.037-.944,1.243,1.243,0,0,0-.193-.015,1.629,1.629,0,0,0-.98.354,1.456,1.456,0,0,0-1.092-.9,1.034,1.034,0,0,0-.17-.013,1.609,1.609,0,0,0-1.152.509V969.2a1.158,1.158,0,0,0-.763-1.121,1.21,1.21,0,0,0-.369-.059,1.132,1.132,0,0,0-1.132,1.132v9.057a1.132,1.132,0,0,1-1.132-1.132v-1.023a.393.393,0,0,0-.393-.392h-.341a1.53,1.53,0,0,0-1.53,1.53v2.794a1.7,1.7,0,0,0,.579,1.277l1.523,1.336a1.7,1.7,0,0,0,1.12.421h6.263a1.7,1.7,0,0,0,1.2-.5l1.269-1.27a1.694,1.694,0,0,0,.5-1.2v-5.463A1.175,1.175,0,0,0,2156.3,973.41Z" fill="url(#linear-gradient-6)"/>
    <path id="패스_20834" data-name="패스 20834" d="M2157.137,972.505a1.129,1.129,0,0,0-.194-.016,1.644,1.644,0,0,0-1.032.394,1.33,1.33,0,0,0-1.038-.944,1.121,1.121,0,0,0-.193-.016,1.638,1.638,0,0,0-.98.354,1.453,1.453,0,0,0-1.091-.9,1.058,1.058,0,0,0-.171-.014,1.606,1.606,0,0,0-1.151.509v-3.576a1.161,1.161,0,0,0-.763-1.122,1.219,1.219,0,0,0-.37-.058,1.132,1.132,0,0,0-1.132,1.132V977.3a1.132,1.132,0,0,1-1.132-1.132v-1.022a.392.392,0,0,0-.392-.393h-.342a1.53,1.53,0,0,0-1.53,1.53v2.795a1.7,1.7,0,0,0,.579,1.277l1.524,1.336a1.7,1.7,0,0,0,1.119.421h6.264a1.7,1.7,0,0,0,1.2-.5l1.27-1.269a1.7,1.7,0,0,0,.5-1.2v-5.462A1.173,1.173,0,0,0,2157.137,972.505Z" fill="url(#linear-gradient-7)"/>
    <path id="패스_20835" data-name="패스 20835" d="M2156.738,972.9a1.13,1.13,0,0,0-.194-.016,1.644,1.644,0,0,0-1.032.394,1.328,1.328,0,0,0-1.038-.944,1.131,1.131,0,0,0-.193-.016,1.637,1.637,0,0,0-.98.354,1.451,1.451,0,0,0-1.091-.9,1.06,1.06,0,0,0-.171-.014,1.606,1.606,0,0,0-1.151.509v-3.576a1.161,1.161,0,0,0-.763-1.122,1.217,1.217,0,0,0-.369-.058,1.132,1.132,0,0,0-1.133,1.132V977.7a1.132,1.132,0,0,1-1.132-1.132v-1.022a.392.392,0,0,0-.392-.393h-.342a1.53,1.53,0,0,0-1.53,1.53v2.795a1.7,1.7,0,0,0,.579,1.277l1.524,1.336a1.7,1.7,0,0,0,1.119.421h6.264a1.7,1.7,0,0,0,1.2-.5l1.27-1.269a1.7,1.7,0,0,0,.5-1.2v-5.462A1.173,1.173,0,0,0,2156.738,972.9Z" fill="#fff"/>
  </g>
</svg>
