<svg xmlns="http://www.w3.org/2000/svg" viewBox="0 0 30 29.9"><defs><style>.cls-1{fill:#fff;}.cls-2{fill:#5ae29e;}</style></defs><title>Asset 1</title><g id="Layer_2" data-name="Layer 2"><g id="Layer_1-2" data-name="Layer 1"><ellipse class="cls-1" cx="15" cy="14.95" rx="15" ry="14.95"/><path id="패스_20835" data-name="패스 20835" class="cls-2" d="M20.28,12.84l-.19,0a1.64,1.64,0,0,0-1,.4,1.33,1.33,0,0,0-1-1h-.19a1.59,1.59,0,0,0-1,.35,1.46,1.46,0,0,0-1.1-.9h-.17a1.62,1.62,0,0,0-1.15.5V8.63A1.12,1.12,0,0,0,13.3,7.45a1.13,1.13,0,0,0-1.13,1.13h0v9.06A1.13,1.13,0,0,1,11,16.51h0v-1a.4.4,0,0,0-.4-.39H10.3a1.54,1.54,0,0,0-1.53,1.53h0v2.8a1.67,1.67,0,0,0,.58,1.27L10.87,22a1.71,1.71,0,0,0,1.12.42h6.27a1.7,1.7,0,0,0,1.2-.5l1.27-1.27a1.7,1.7,0,0,0,.5-1.2V14A1.18,1.18,0,0,0,20.28,12.84Z"/></g></g></svg>