<svg xmlns="http://www.w3.org/2000/svg" width="280" height="1040" viewBox="0 0 280 1040">
    <g data-name="그룹 2809">
        <g data-name="그룹 2808">
            <g data-name="그룹 2807">
                <g data-name="그룹 2805">
                    <path data-name="패스 20757" d="m-1625.569 1103.515 10-10a30 30 0 0 0 8.787-21.213v-27.574a20 20 0 0 0-20-20h-240a20 20 0 0 0-20 20v80h252.427a29.9 29.9 0 0 1 8.786-21.213z" transform="translate(1886.782 -1024.728)" style="fill:#f0f0f0"/>
                    <path data-name="패스 20758" d="M-1625.569 1146.146a30.343 30.343 0 0 1-8.786-21.418h-252.427v919.807a20.1 20.1 0 0 0 20 20.193h240a20.1 20.1 0 0 0 20-20.193v-866.874a30.44 30.44 0 0 0-8.787-21.418z" transform="translate(1886.782 -1024.728)" style="fill:#f7f7f7"/>
                    <path d="M252.446 1H0" transform="translate(0 99)" style="fill:none;stroke:#dfe0e2;stroke-miterlimit:10"/>
                </g>
            </g>
        </g>
    </g>
</svg>
