<svg xmlns="http://www.w3.org/2000/svg" xmlns:xlink="http://www.w3.org/1999/xlink" width="30" height="29.919" viewBox="0 0 30 29.919">
  <defs>
    <linearGradient id="linear-gradient" x1="0.569" y1="0.776" x2="-2.27" y2="-14.098" gradientUnits="objectBoundingBox">
      <stop offset="0" stop-color="#1837d8"/>
      <stop offset="0.51" stop-color="#00c1ff"/>
      <stop offset="1" stop-color="#70e6ff"/>
    </linearGradient>
    <linearGradient id="linear-gradient-2" x1="0.725" y1="1.379" x2="-1.308" y2="-7.15" xlink:href="#linear-gradient"/>
    <linearGradient id="linear-gradient-3" x1="1.251" y1="1.973" x2="-0.55" y2="-1.705" xlink:href="#linear-gradient"/>
    <linearGradient id="linear-gradient-4" x1="2.624" y1="4.881" x2="-0.726" y2="-1.991" xlink:href="#linear-gradient"/>
    <linearGradient id="linear-gradient-5" x1="1.002" y1="1.632" x2="-0.71" y2="-2.175" xlink:href="#linear-gradient"/>
    <linearGradient id="linear-gradient-6" x1="0.5" y1="1.433" x2="0.5" y2="-0.736" xlink:href="#linear-gradient"/>
    <linearGradient id="linear-gradient-7" x1="-0.236" y1="3.287" x2="0.918" y2="-1.082" xlink:href="#linear-gradient"/>
    <linearGradient id="linear-gradient-8" x1="0.275" y1="1.348" x2="0.893" y2="-0.988" xlink:href="#linear-gradient"/>
    <linearGradient id="linear-gradient-9" x1="-0.392" y1="1.066" x2="1.505" y2="-0.146" xlink:href="#linear-gradient"/>
  </defs>
  <g id="Layer_2" data-name="Layer 2" transform="translate(0 0.019)">
    <g id="Layer_3" data-name="Layer 3">
      <path id="패스_20660" data-name="패스 20660" d="M24.47,23.84a12.13,12.13,0,0,1-10.65,1.84c-3.4-1-4.58,2-3,3.65A15.22,15.22,0,0,0,15,29.9a15,15,0,0,0,11.05-4.84C26.78,24.19,25.74,22.91,24.47,23.84Z" fill-rule="evenodd" fill="url(#linear-gradient)"/>
      <path id="패스_20661" data-name="패스 20661" d="M9.22,23.18a3.92,3.92,0,0,0,1.64,6.15c-1.62-1.61-.44-4.68,3-3.65h0a12.13,12.13,0,0,0,10.65-1.84c1.27-.93,2.31.35,1.58,1.22a14.83,14.83,0,0,0,2.34-3.37c1.8-5-14.95-.8-19.17,1.49" fill-rule="evenodd" fill="url(#linear-gradient-2)"/>
      <path id="패스_20662" data-name="패스 20662" d="M14.77,9.55c4.7-1.84,9.33-3.18,10.7-5.31A15,15,0,0,0,0,15,14.85,14.85,0,0,0,4.68,25.8,8,8,0,0,1,3.1,20.05h0c.38-3.55,2.82-6,6-7.84M12.78,4.1C6.77,5.7,2,10.15,1.17,15.46,1,8.3,6.26,2.19,12.86,1.66,15.66,1.43,15.42,3.41,12.78,4.1Z" fill-rule="evenodd" fill="url(#linear-gradient-3)"/>
      <path id="패스_20663" data-name="패스 20663" d="M1.17,15.46C2,10.15,6.77,5.7,12.78,4.1c2.64-.69,2.88-2.67.08-2.44C6.26,2.19,1,8.3,1.17,15.46Z" fill-rule="evenodd" fill="url(#linear-gradient-4)"/>
      <path id="패스_20664" data-name="패스 20664" d="M30,15A14.91,14.91,0,0,0,25.47,4.24c-1.37,2.13-6,3.47-10.7,5.31C4.52,13.44,3.48,16.5,3.1,20.05A8,8,0,0,0,4.68,25.8a15,15,0,0,0,6.18,3.53,4,4,0,0,1-2.4-2.66h0a3.57,3.57,0,0,1,2.18-4.1c5.65-2.32,19.4-5.44,17.76-.84A14.79,14.79,0,0,0,30,15Z" fill-rule="evenodd" fill="url(#linear-gradient-5)"/>
      <path id="패스_20665" data-name="패스 20665" d="M8.94,9.16h-.2A2.24,2.24,0,0,0,6.5,11.4v8.84A2.5,2.5,0,0,0,9,22.74H19a2.5,2.5,0,0,0,2.5-2.5V14.91H8.94Z" fill="url(#linear-gradient-6)"/>
      <path id="패스_20666" data-name="패스 20666" d="M21.14,12H13.6a.35.35,0,0,1-.26-.11L11.1,9.51a1.09,1.09,0,0,0-.79-.35H8.94v5.75H21.5V12.38a.36.36,0,0,0-.36-.38Z" fill="url(#linear-gradient-7)"/>
      <path id="패스_20667" data-name="패스 20667" d="M21.14,12H13.6a.35.35,0,0,1-.26-.11L11.1,9.51a1.09,1.09,0,0,0-.79-.35H8.94v5.75H21.5V12.38a.36.36,0,0,0-.36-.38Z" fill="url(#linear-gradient-8)"/>
      <path id="패스_20668" data-name="패스 20668" d="M10.22,13.56H22.79v5.33a2.5,2.5,0,0,1-2.5,2.5h-10a2.5,2.5,0,0,1-2.5-2.5V10.06A2.24,2.24,0,0,1,10,7.82h.19Zm12.21-2.88H14.88a.36.36,0,0,1-.26-.11L12.38,8.16a1.08,1.08,0,0,0-.78-.34H10.22v5.74H22.79V11A.36.36,0,0,0,22.43,10.68ZM15.12,10,13.79,8.54h6.94a2.15,2.15,0,0,1,2,1.45,1,1,0,0,0-.24,0Z" fill="url(#linear-gradient-9)"/>
      <path id="패스_20669" data-name="패스 20669" d="M22.14,11H14.6a.35.35,0,0,1-.26-.11L12.1,8.5a1.12,1.12,0,0,0-.79-.34H9.74A2.24,2.24,0,0,0,7.5,10.4v8.84a2.5,2.5,0,0,0,2.5,2.5H20a2.5,2.5,0,0,0,2.5-2.5V11.38a.36.36,0,0,0-.36-.38Z" fill="#fff"/>
      <path id="패스_20670" data-name="패스 20670" d="M22.23,10.31h.24a2.13,2.13,0,0,0-2-1.45H13.51l1.33,1.43Z" fill="#fff"/>
    </g>
  </g>
</svg>
