<svg xmlns="http://www.w3.org/2000/svg" viewBox="0 0 30 29.9"><defs><style>.cls-1{fill:#fff;}.cls-2{fill:#06f;}</style></defs><title>Asset 18</title><g id="Layer_2" data-name="Layer 2"><g id="Layer_3" data-name="Layer 3"><ellipse class="cls-1" cx="15" cy="14.95" rx="15" ry="14.95"/><path class="cls-2" d="M22.14,11H14.6a.35.35,0,0,1-.26-.11L12.1,8.5a1.12,1.12,0,0,0-.79-.34H9.74A2.24,2.24,0,0,0,7.5,10.4v8.84a2.5,2.5,0,0,0,2.5,2.5H20a2.5,2.5,0,0,0,2.5-2.5V11.38A.36.36,0,0,0,22.14,11Z"/><path class="cls-2" d="M22.23,10.31l.24,0a2.13,2.13,0,0,0-2-1.45H13.51l1.33,1.43Z"/></g></g></svg>