<svg data-name="Layer 2" xmlns="http://www.w3.org/2000/svg" width="20" height="20" viewBox="0 0 20 20">
    <g data-name="Layer 1">
        <path d="M10.6 20h-.37a.78.78 0 0 1 0-1.56h.37a7.7 7.7 0 0 0 5.55-2.38.79.79 0 0 1 1.11 0 .78.78 0 0 1 0 1.1A9.26 9.26 0 0 1 10.6 20zm-3.53 0H4.69A4.69 4.69 0 0 1 0 15.31v-6.4a4.69 4.69 0 0 1 4.69-4.69h10.62A4.69 4.69 0 0 1 20 8.91v2.34a.78.78 0 0 1-1.56 0V8.91a3.13 3.13 0 0 0-3.13-3.13H4.69a3.13 3.13 0 0 0-3.13 3.13v6.4a3.13 3.13 0 0 0 3.13 3.13h2.38a.78.78 0 0 1 0 1.56zm12.15-1.6a.78.78 0 0 1-.78-.78v-2.07a.83.83 0 0 0-.83-.82h-2.06a.79.79 0 0 1-.81-.76.78.78 0 0 1 .75-.81h2.12A2.39 2.39 0 0 1 20 15.55v2.07a.78.78 0 0 1-.78.78zM8.48 16.56a1 1 0 1 1 1-1 1 1 0 0 1-1 1zm-3.36 0a1 1 0 1 1 1.049-.412 1 1 0 0 1-1.049.412zm6.72-3.36a1 1 0 1 1 1-1 1 1 0 0 1-1 1zm-3.36 0a1 1 0 0 1 0-1.95 1 1 0 0 1 1 1 1 1 0 0 1-1 1zm-3.36 0a1 1 0 0 1 0-1.95 1 1 0 0 1 1 1 1 1 0 0 1-1 1zm6.72-3.36a1 1 0 0 1 0-1.95 1 1 0 0 1 0 2zm-3.36 0a1 1 0 0 1 0-1.95 1 1 0 0 1 0 2zm-3.35 0a1 1 0 1 1 1-1 1 1 0 0 1-1 1z" style="fill:#172757"/>
        <path d="M15.19 9.84a1 1 0 1 1 1-1 1 1 0 0 1-1 1zm.9-6.72a.78.78 0 0 1-.78-.78.78.78 0 0 0-1.56 0 .78.78 0 1 1-1.56 0 2.34 2.34 0 0 1 4.68 0 .78.78 0 0 1-.78.78zm-9 0a.78.78 0 0 1-.78-.78.79.79 0 0 0-1.57 0 .78.78 0 1 1-1.54.06v-.06a2.35 2.35 0 0 1 4.69 0 .78.78 0 0 1-.78.78z" style="fill:#009cdf"/>
    </g>
</svg>
