<svg data-name="Layer 2" xmlns="http://www.w3.org/2000/svg" width="18" height="18.005" viewBox="0 0 18 18.005">
    <g data-name="Layer 1">
        <path d="M7.45 18H4.22A4.22 4.22 0 0 1 0 13.78V4.22A4.22 4.22 0 0 1 4.22 0h6.47a4.23 4.23 0 0 1 4.22 4.22.705.705 0 0 1-1.41 0 2.81 2.81 0 0 0-2.81-2.81H4.22a2.8 2.8 0 0 0-2.81 2.81v9.56a2.81 2.81 0 0 0 2.81 2.81h3.23a.71.71 0 1 1 0 1.41zm1.16-3.94H5.17a.7.7 0 1 1 0-1.4h3.44a.7.7 0 0 1 0 1.4zm5.14-1.76a3 3 0 1 1 3-3 3 3 0 0 1-3 3zm0-4.57a1.59 1.59 0 1 0 1.58 1.59 1.59 1.59 0 0 0-1.58-1.59zm-5.14 3.63H5.17a.705.705 0 0 1 0-1.41h3.44a.7.7 0 0 1 .71.7.71.71 0 0 1-.71.71zm0-2.68H5.17a.7.7 0 0 1 0-1.4h3.44a.7.7 0 0 1 0 1.4z" style="fill:#172757"/>
        <path d="M17.3 18a.72.72 0 0 1-.71-.7 2.51 2.51 0 0 0-2.51-2.53h-.6A2.52 2.52 0 0 0 11 17.3a.705.705 0 0 1-1.41 0 3.94 3.94 0 0 1 3.92-3.94h.6A3.94 3.94 0 0 1 18 17.3a.7.7 0 0 1-.7.7zM10 6H5.17a.705.705 0 0 1 0-1.41H10A.705.705 0 0 1 10 6z" style="fill:#009cdf"/>
    </g>
</svg>
