<svg xmlns="http://www.w3.org/2000/svg" width="19.283" height="18.006" viewBox="0 0 19.283 18.006">
    <g data-name="Layer 2">
        <g data-name="Layer 1">
            <path d="M8 14.83a7.71 7.71 0 0 1-8-7.42A7.71 7.71 0 0 1 8 0a7.71 7.71 0 0 1 7.94 7.41A7.71 7.71 0 0 1 8 14.83zM8 1.41a6.23 6.23 0 0 0-6.44 6 6.23 6.23 0 0 0 6.44 6 6.24 6.24 0 0 0 6.44-6 6.25 6.25 0 0 0-6.44-6z" style="fill:#172757" transform="translate(0 .006)"/>
            <path d="M18.53 18a.74.74 0 0 1-.53-.21l-3.37-3.14a.66.66 0 0 1-.05-.94.12.12 0 0 1 .05-.05.79.79 0 0 1 1.06 0l3.37 3.14a.66.66 0 0 1 .05.94l-.05.05a.74.74 0 0 1-.53.21zM8 11.6a.73.73 0 0 1-.75-.7v-.61a3.29 3.29 0 0 1-1.55-.82l-.56.31a.75.75 0 0 1-.38.1.8.8 0 0 1-.65-.34A.67.67 0 0 1 4 9a.7.7 0 0 1 .34-.45l.56-.31a2.9 2.9 0 0 1 0-1.75l-.56-.32A.7.7 0 0 1 4 5.75a.65.65 0 0 1 .09-.51.75.75 0 0 1 .64-.35.87.87 0 0 1 .39.1l.56.32a3.25 3.25 0 0 1 1.54-.82v-.62a.73.73 0 0 1 .78-.7.74.74 0 0 1 .76.7v.61a3.4 3.4 0 0 1 1.51.8l.49-.28a.87.87 0 0 1 .39-.1.77.77 0 0 1 .64.34.68.68 0 0 1 .09.52.67.67 0 0 1-.35.44l-.5.28a2.71 2.71 0 0 1 0 1.82l.5.28a.67.67 0 0 1 .26 1 .77.77 0 0 1-.64.34.76.76 0 0 1-.39-.1l-.51-.29a3.26 3.26 0 0 1-1.51.8v.61a.73.73 0 0 1-.74.66zm0-5.79a1.63 1.63 0 0 0-1.7 1.58A1.64 1.64 0 0 0 8 9a1.65 1.65 0 0 0 1.7-1.58A1.64 1.64 0 0 0 8 5.81z" style="fill:#009cdf" transform="translate(0 .006)"/>
        </g>
    </g>
</svg>
