<svg data-name="Layer 2" xmlns="http://www.w3.org/2000/svg" width="20" height="20" viewBox="0 0 20 20">
    <g data-name="Layer 1">
        <path d="M15.31 20H4.69A4.69 4.69 0 0 1 0 15.31V4.69A4.69 4.69 0 0 1 4.69 0h10.62A4.69 4.69 0 0 1 20 4.69v10.62A4.69 4.69 0 0 1 15.31 20zM4.69 1.56a3.13 3.13 0 0 0-3.13 3.13v10.62a3.13 3.13 0 0 0 3.13 3.13h10.62a3.13 3.13 0 0 0 3.13-3.13V4.69a3.13 3.13 0 0 0-3.13-3.13zm11 15.31H14a.78.78 0 1 1 0-1.56h1.71a.78.78 0 0 1 0 1.56zm-1.05-3H8.09a.78.78 0 1 1 0-1.56h6.52a.78.78 0 1 1 0 1.56zM7.46 4.73H4.18a.79.79 0 0 1 0-1.57h3.28a.79.79 0 0 1 0 1.57z" style="fill:#172757"/>
        <path d="M15.78 10.78h-5.51a.78.78 0 0 1-.81-.78.8.8 0 0 1 .76-.81h5.56a.781.781 0 1 1 .06 1.56zM13 7.77H5.74A.78.78 0 0 1 4.93 7a.79.79 0 0 1 .76-.81h7.36a.78.78 0 0 1 .75.81.77.77 0 0 1-.75.75z" style="fill:#009cdf"/>
    </g>
</svg>
