<svg xmlns="http://www.w3.org/2000/svg" width="20" height="16.49" viewBox="0 0 20 16.49">
    <g data-name="Layer 1">
        <path d="M13.75 16.48h-7.5a.69.69 0 0 1-.19-1.36h7.69a.69.69 0 1 1 .19 1.36zm1.56-2.72H4.69A4.43 4.43 0 0 1 0 9.67V4.09A4.42 4.42 0 0 1 4.69 0h7.73a.73.73 0 0 1 .78.68.73.73 0 0 1-.78.68H4.69a3 3 0 0 0-3.13 2.73v5.58a3 3 0 0 0 3.13 2.73h10.62a3 3 0 0 0 3.13-2.73V6.61a.77.77 0 0 1 .88-.67.8.8 0 0 1 .68.67v3.06a4.43 4.43 0 0 1-4.69 4.09z" style="fill:#172757" transform="translate(0 .009)"/>
        <path d="M9.06 6.58H8.6a.74.74 0 0 1-.78-.69.74.74 0 0 1 .78-.68h.46a10.41 10.41 0 0 0 7.09-2.68.91.91 0 0 1 .57-.21.89.89 0 0 1 .54.19.68.68 0 0 1 .24.49.62.62 0 0 1-.22.48 12.1 12.1 0 0 1-8.22 3.1zm10.16-2a.74.74 0 0 1-.78-.68V2.09a.79.79 0 0 0-.83-.72h-2.06a.74.74 0 0 1-.79-.68.74.74 0 0 1 .79-.69h2.06A2.25 2.25 0 0 1 20 2.09v1.8a.74.74 0 0 1-.78.68z" style="fill:#009cdf" transform="translate(0 .009)"/>
    </g>
</svg>
