<svg xmlns="http://www.w3.org/2000/svg" width="180" height="55.216" viewBox="0 0 180 55.216">
    <defs>
        <linearGradient id="86u87b9tza" x1=".261" y1=".171" x2=".689" y2=".76" gradientUnits="objectBoundingBox">
            <stop offset="0" stop-color="#009cdf"/>
            <stop offset=".942" stop-color="#203775"/>
        </linearGradient>
    </defs>
    <g data-name="그룹 2806">
        <g data-name="그룹 2581">
            <g data-name="그룹 2578">
                <path data-name="패스 20711" d="M-1356.809-59.353a.9.9 0 0 0-.9-.9.9.9 0 0 0-.9.9.9.9 0 0 0 .9.9.9.9 0 0 0 .9-.9zm-9.55-.054h5.454v5.455h2.773v-3.714a1.742 1.742 0 0 1-1.264-1.263 1.661 1.661 0 0 1-.058-.424 1.665 1.665 0 0 1 .058-.426 1.747 1.747 0 0 1 1.689-1.322 1.748 1.748 0 0 1 1.746 1.748 1.745 1.745 0 0 1-1.323 1.687v3.714h2.348v-8.174h-11.423zm10.1-9.537a1.746 1.746 0 0 1 1.323-1.687v-3.9h-2.348v8.356h2.348v-1.083a1.748 1.748 0 0 1-1.323-1.686zm-1.873-5.582h-2.773v5.455h-5.454v6.1h11.423v-2.346h-3.2zm4.518 5.582a.9.9 0 0 0-.473-.786.893.893 0 0 0-.425-.111.9.9 0 0 0-.424.111.9.9 0 0 0-.474.786.9.9 0 0 0 .474.788.892.892 0 0 0 .424.113.883.883 0 0 0 .425-.113.9.9 0 0 0 .473-.788zm1.4 6.394a.9.9 0 0 0 .9.9.9.9 0 0 0 .9-.9.9.9 0 0 0-.9-.9.9.9 0 0 0-.899.9zm.971-6.521v-5.455h-2.845v3.9a1.74 1.74 0 0 1 1.264 1.263 1.713 1.713 0 0 1 .059.424 1.709 1.709 0 0 1-.059.426 1.743 1.743 0 0 1-1.264 1.265v1.083h8.3v-2.9zm-2.845 15.119h2.845v-5.455h5.456v-2.719h-3.84a1.746 1.746 0 0 1-1.264 1.264 1.756 1.756 0 0 1-.425.058 1.742 1.742 0 0 1-.424-.058 1.746 1.746 0 0 1-1.323-1.688 1.749 1.749 0 0 1 1.747-1.747 1.745 1.745 0 0 1 1.689 1.322h3.84v-2.346h-8.3z" style="fill:url(#86u87b9tza)" transform="translate(1525.786 74.526)"/>
                <path data-name="패스 20712" d="M-1351.315-64.3a1.749 1.749 0 0 0-1.747 1.747 1.746 1.746 0 0 0 1.323 1.688 1.742 1.742 0 0 0 .424.058 1.756 1.756 0 0 0 .425-.058 1.746 1.746 0 0 0 1.264-1.264h3.84v-.849h-3.84a1.745 1.745 0 0 0-1.689-1.322zm0 2.644a.9.9 0 0 1-.9-.9.9.9 0 0 1 .9-.9.9.9 0 0 1 .9.9.9.9 0 0 1-.9.903zm-6.392.552a1.747 1.747 0 0 0-1.689 1.322 1.665 1.665 0 0 0-.058.426 1.661 1.661 0 0 0 .058.424 1.742 1.742 0 0 0 1.264 1.263v3.714h.848v-3.714a1.745 1.745 0 0 0 1.323-1.687 1.748 1.748 0 0 0-1.746-1.744zm0 2.644a.9.9 0 0 1-.9-.9.9.9 0 0 1 .9-.9.9.9 0 0 1 .9.9.9.9 0 0 1-.9.903zm3.62-7.713v-1.083a1.743 1.743 0 0 0 1.264-1.265 1.709 1.709 0 0 0 .059-.426 1.713 1.713 0 0 0-.059-.424 1.74 1.74 0 0 0-1.264-1.263v-3.9h-.849v3.9a1.746 1.746 0 0 0-1.323 1.687 1.748 1.748 0 0 0 1.323 1.691v1.083h-2.348v-8.356h-.848v9.205h3.2v2.346h-11.423v.849h11.423v8.174h.849v-11.366h8.3v-.849zm-.425-1.873a.892.892 0 0 1-.424-.113.9.9 0 0 1-.474-.788.9.9 0 0 1 .474-.786.9.9 0 0 1 .424-.111.893.893 0 0 1 .425.111.9.9 0 0 1 .473.786.9.9 0 0 1-.473.788.883.883 0 0 1-.425.116z" style="fill:#fff" transform="translate(1525.786 74.526)"/>
            </g>
            <g data-name="그룹 2579">
                <path data-name="패스 20713" d="M-1495.059-25.06h.557l1.54 3.193 1.53-3.193h.563v4.243h-.583v-2.905l-1.372 2.908h-.28l-1.374-2.908v2.908h-.581z" style="fill:#172757" transform="translate(1525.786 74.526)"/>
                <path data-name="패스 20714" d="M-1488.687-21.307a.865.865 0 0 0 .829-.507l.6.192a1.489 1.489 0 0 1-1.4.9 1.537 1.537 0 0 1-1.589-1.654 1.54 1.54 0 0 1 1.559-1.708c.974 0 1.54.714 1.475 1.855h-2.374c.051.589.364.922.9.922zm-.884-1.406h1.728c-.065-.564-.331-.829-.82-.829a.852.852 0 0 0-.908.829z" style="fill:#172757" transform="translate(1525.786 74.526)"/>
                <path data-name="패스 20715" d="M-1483.815-25.06v4.246h-.548v-.292a1.271 1.271 0 0 1-.949.38 1.505 1.505 0 0 1-1.442-1.684 1.5 1.5 0 0 1 1.453-1.678 1.275 1.275 0 0 1 .867.307v-1.279zm-.548 2.65c0-.66-.263-1.12-.843-1.12-.614 0-.893.5-.893 1.12s.279 1.127.872 1.127c.608 0 .864-.466.864-1.127z" style="fill:#172757" transform="translate(1525.786 74.526)"/>
                <path data-name="패스 20716" d="M-1482.955-25.119h.616v.6h-.616zm0 1.12h.616v3.185h-.616z" style="fill:#172757" transform="translate(1525.786 74.526)"/>
                <path data-name="패스 20717" d="M-1481.656-22.407a1.526 1.526 0 0 1 1.548-1.681 1.338 1.338 0 0 1 1.381.971l-.614.177a.8.8 0 0 0-.776-.566c-.6 0-.881.462-.884 1.1 0 .658.3 1.1.884 1.1a.747.747 0 0 0 .764-.531l.626.148a1.364 1.364 0 0 1-1.39.964 1.521 1.521 0 0 1-1.539-1.682z" style="fill:#172757" transform="translate(1525.786 74.526)"/>
                <path data-name="패스 20718" d="M-1475.6-22.775v1.961h-.545v-.463a1.291 1.291 0 0 1-1.147.551.962.962 0 0 1-1.076-.956.936.936 0 0 1 .751-.943 10.634 10.634 0 0 1 1.41-.247c-.021-.44-.221-.646-.72-.646a.726.726 0 0 0-.752.5l-.575-.177a1.245 1.245 0 0 1 1.334-.894 1.222 1.222 0 0 1 1.208.608 1.6 1.6 0 0 1 .112.706zm-.678.914a1.815 1.815 0 0 0 .065-.5 8.813 8.813 0 0 0-1.106.2c-.254.085-.439.221-.439.472s.179.457.575.457a.876.876 0 0 0 .907-.629z" style="fill:#172757" transform="translate(1525.786 74.526)"/>
                <path data-name="패스 20719" d="M-1474.8-25.149h.616v4.335h-.616z" style="fill:#172757" transform="translate(1525.786 74.526)"/>
                <path data-name="패스 20720" d="M-1472.549-25.06h.64l1.177 3.623 1.19-3.623h.641l-1.38 4.246h-.888z" style="fill:#172757" transform="translate(1525.786 74.526)"/>
                <path data-name="패스 20721" d="M-1468.544-25.119h.617v.6h-.617zm0 1.12h.617v3.185h-.617z" style="fill:#172757" transform="translate(1525.786 74.526)"/>
                <path data-name="패스 20722" d="M-1464.3-25.06v4.246h-.548v-.292a1.275 1.275 0 0 1-.95.38 1.5 1.5 0 0 1-1.442-1.684 1.5 1.5 0 0 1 1.454-1.678 1.277 1.277 0 0 1 .867.307v-1.279zm-.548 2.65c0-.66-.263-1.12-.844-1.12-.613 0-.894.5-.894 1.12s.281 1.127.873 1.127c.604 0 .861-.466.861-1.127z" style="fill:#172757" transform="translate(1525.786 74.526)"/>
                <path data-name="패스 20723" d="M-1462.121-21.307a.865.865 0 0 0 .828-.507l.6.192a1.491 1.491 0 0 1-1.4.9 1.537 1.537 0 0 1-1.589-1.654 1.54 1.54 0 0 1 1.56-1.708c.973 0 1.539.714 1.474 1.855h-2.374c.052.589.364.922.901.922zm-.885-1.406h1.729c-.065-.564-.331-.829-.82-.829a.853.853 0 0 0-.909.829z" style="fill:#172757" transform="translate(1525.786 74.526)"/>
                <path data-name="패스 20724" d="M-1460.188-22.41a1.537 1.537 0 0 1 1.559-1.678 1.535 1.535 0 0 1 1.563 1.678 1.537 1.537 0 0 1-1.563 1.684 1.536 1.536 0 0 1-1.559-1.684zm2.468 0c0-.666-.307-1.1-.909-1.1-.619 0-.905.448-.905 1.1 0 .673.31 1.1.905 1.1s.909-.448.909-1.1z" style="fill:#172757" transform="translate(1525.786 74.526)"/>
                <path data-name="패스 20725" d="M-1455.287-25.06h.558l1.539 3.193 1.53-3.193h.563v4.243h-.584v-2.905l-1.371 2.908h-.28l-1.374-2.908v2.908h-.581z" style="fill:#172757" transform="translate(1525.786 74.526)"/>
                <path data-name="패스 20726" d="M-1447.706-22.775v1.961h-.545v-.463a1.289 1.289 0 0 1-1.147.551.963.963 0 0 1-1.077-.956.937.937 0 0 1 .753-.943 10.621 10.621 0 0 1 1.409-.247c-.021-.44-.222-.646-.719-.646a.728.728 0 0 0-.753.5l-.574-.177a1.242 1.242 0 0 1 1.332-.894 1.223 1.223 0 0 1 1.209.608 1.581 1.581 0 0 1 .112.706zm-.678.914a1.82 1.82 0 0 0 .065-.5 8.783 8.783 0 0 0-1.1.2c-.254.085-.44.221-.44.472s.18.457.575.457a.875.875 0 0 0 .9-.629z" style="fill:#172757" transform="translate(1525.786 74.526)"/>
                <path data-name="패스 20727" d="M-1444.1-22.584v1.77h-.625v-1.566c0-.5-.126-1.121-.805-1.121-.442 0-.808.275-.808 1.03v1.657h-.625V-24h.551v.38a1.286 1.286 0 0 1 1.053-.465c1.093.001 1.259 1.009 1.259 1.501z" style="fill:#172757" transform="translate(1525.786 74.526)"/>
                <path data-name="패스 20728" d="M-1440.771-22.775v1.961h-.545v-.463a1.289 1.289 0 0 1-1.147.551.962.962 0 0 1-1.076-.956.936.936 0 0 1 .752-.943 10.648 10.648 0 0 1 1.409-.247c-.02-.44-.221-.646-.719-.646a.728.728 0 0 0-.753.5l-.574-.177a1.244 1.244 0 0 1 1.333-.894 1.221 1.221 0 0 1 1.208.608 1.579 1.579 0 0 1 .112.706zm-.678.914a1.779 1.779 0 0 0 .065-.5 8.791 8.791 0 0 0-1.1.2c-.254.085-.439.221-.439.472s.179.457.574.457a.875.875 0 0 0 .9-.629z" style="fill:#172757" transform="translate(1525.786 74.526)"/>
                <path data-name="패스 20729" d="M-1437.269-24v3.27a2.224 2.224 0 0 1-.041.472c-.133.646-.664.947-1.407.947a1.427 1.427 0 0 1-1.262-.7l.569-.288a.755.755 0 0 0 .7.392.739.739 0 0 0 .822-.832v-.3a1.277 1.277 0 0 1-.875.31 1.505 1.505 0 0 1-1.442-1.684 1.5 1.5 0 0 1 1.454-1.678 1.256 1.256 0 0 1 .937.375V-24zm-.546 1.589c0-.66-.262-1.12-.843-1.12-.613 0-.893.5-.893 1.12s.28 1.127.873 1.127.863-.465.863-1.126z" style="fill:#172757" transform="translate(1525.786 74.526)"/>
                <path data-name="패스 20730" d="M-1435.086-21.307a.864.864 0 0 0 .828-.507l.606.192a1.492 1.492 0 0 1-1.4.9 1.538 1.538 0 0 1-1.59-1.654 1.54 1.54 0 0 1 1.56-1.708c.973 0 1.539.714 1.474 1.855h-2.373c.046.589.359.922.895.922zm-.885-1.406h1.729c-.065-.564-.33-.829-.82-.829a.853.853 0 0 0-.909.829z" style="fill:#172757" transform="translate(1525.786 74.526)"/>
                <path data-name="패스 20731" d="M-1428.63-22.946v2.132h-.616v-1.985a.645.645 0 0 0-.643-.731.648.648 0 0 0-.649.725v1.991h-.617v-1.973c0-.46-.253-.743-.645-.743a.653.653 0 0 0-.65.725v1.991h-.619V-24h.549v.342a1.144 1.144 0 0 1 .914-.422.983.983 0 0 1 .926.516 1.106 1.106 0 0 1 .967-.516 1.027 1.027 0 0 1 1.083 1.134z" style="fill:#172757" transform="translate(1525.786 74.526)"/>
                <path data-name="패스 20732" d="M-1426.545-21.307a.866.866 0 0 0 .829-.507l.6.192a1.489 1.489 0 0 1-1.4.9 1.537 1.537 0 0 1-1.589-1.654 1.54 1.54 0 0 1 1.559-1.708c.974 0 1.54.714 1.475 1.855h-2.374c.051.589.364.922.9.922zm-.884-1.406h1.728c-.065-.564-.33-.829-.82-.829a.852.852 0 0 0-.908.829z" style="fill:#172757" transform="translate(1525.786 74.526)"/>
                <path data-name="패스 20733" d="M-1421.664-22.584v1.77h-.625v-1.566c0-.5-.126-1.121-.8-1.121-.443 0-.808.275-.808 1.03v1.657h-.626V-24h.552v.38a1.284 1.284 0 0 1 1.052-.465c1.094.001 1.255 1.009 1.255 1.501z" style="fill:#172757" transform="translate(1525.786 74.526)"/>
                <path data-name="패스 20734" d="M-1420.046-22.1a1.194 1.194 0 0 0 .065.572c.141.242.465.251.881.189v.522c-.6.117-1.215.056-1.448-.387a1.731 1.731 0 0 1-.117-.867V-23.5h-.611v-.5h.611v-.885h.619V-24h.946v.5h-.946z" style="fill:#172757" transform="translate(1525.786 74.526)"/>
                <path data-name="패스 20735" d="m-1417.5-22.032.643-.1a1.1 1.1 0 0 0 1.129.823c.51 0 .95-.253.95-.678 0-.307-.222-.463-.534-.557l-1.088-.322a1.093 1.093 0 0 1-.935-1.064c0-.788.667-1.221 1.522-1.218a1.572 1.572 0 0 1 1.648 1.244l-.661.113a.974.974 0 0 0-1-.773c-.475-.009-.861.242-.861.6s.36.48.66.562l.785.222c.392.109 1.1.318 1.1 1.147 0 .855-.751 1.3-1.627 1.3a1.621 1.621 0 0 1-1.731-1.299z" style="fill:#172757" transform="translate(1525.786 74.526)"/>
                <path data-name="패스 20736" d="m-1410.815-24-1.757 4.6h-.587l.525-1.43-1.288-3.17h.642l.944 2.391.9-2.391z" style="fill:#172757" transform="translate(1525.786 74.526)"/>
                <path data-name="패스 20737" d="m-1410.557-21.708.631-.1a.749.749 0 0 0 .805.533c.383 0 .616-.165.616-.442 0-.242-.106-.306-.855-.507-.822-.215-1.094-.442-1.094-.911 0-.578.49-.956 1.239-.956a1.193 1.193 0 0 1 1.327.935l-.632.115a.638.638 0 0 0-.689-.507c-.375-.015-.628.139-.628.381 0 .212.144.294.89.483.8.206 1.077.451 1.077.944 0 .631-.488 1.008-1.292 1.008a1.247 1.247 0 0 1-1.395-.976z" style="fill:#172757" transform="translate(1525.786 74.526)"/>
                <path data-name="패스 20738" d="M-1406.369-22.1a1.219 1.219 0 0 0 .065.572c.142.242.466.251.882.189v.522c-.6.117-1.215.056-1.448-.387a1.742 1.742 0 0 1-.118-.867V-23.5h-.61v-.5h.61v-.885h.619V-24h.947v.5h-.947z" style="fill:#172757" transform="translate(1525.786 74.526)"/>
                <path data-name="패스 20739" d="M-1403.542-21.307a.865.865 0 0 0 .828-.507l.6.192a1.492 1.492 0 0 1-1.4.9 1.537 1.537 0 0 1-1.589-1.654 1.54 1.54 0 0 1 1.56-1.708c.972 0 1.539.714 1.474 1.855h-2.374c.051.589.364.922.901.922zm-.885-1.406h1.728c-.065-.564-.33-.829-.82-.829a.852.852 0 0 0-.908.829z" style="fill:#172757" transform="translate(1525.786 74.526)"/>
                <path data-name="패스 20740" d="M-1397.086-22.946v2.132h-.616v-1.985a.644.644 0 0 0-.642-.731.648.648 0 0 0-.65.725v1.991h-.617v-1.973c0-.46-.254-.743-.646-.743a.653.653 0 0 0-.649.725v1.991h-.619V-24h.548v.342a1.144 1.144 0 0 1 .914-.422.983.983 0 0 1 .926.516 1.106 1.106 0 0 1 .967-.516 1.028 1.028 0 0 1 1.084 1.134z" style="fill:#172757" transform="translate(1525.786 74.526)"/>
            </g>
            <g data-name="그룹 2580">
                <path data-name="패스 20741" d="M-1525.786-56.768h4.358l8.5 17.074 8.5-17.074h4.358v25.719h-4.537v-15.36l-7.465 15.36h-1.714l-7.466-15.36v15.36h-4.536z" style="fill:#172757" transform="translate(1525.786 74.526)"/>
                <path data-name="패스 20742" d="M-1486.385-35.05a4.1 4.1 0 0 0 4-2.429l4.858 1.393a9.1 9.1 0 0 1-8.572 5.572c-5.93 0-10.038-4.143-10.038-9.93 0-6.322 4.037-10.43 9.752-10.43 6.072 0 9.608 4.537 9.019 11.538h-13.534c.353 2.75 1.889 4.286 4.515 4.286zm-4.394-7.894h8.5c-.339-2.607-1.553-3.715-3.893-3.715a4.223 4.223 0 0 0-4.607 3.715z" style="fill:#172757" transform="translate(1525.786 74.526)"/>
                <path data-name="패스 20743" d="M-1456.022-56.768v25.719h-4.287v-1.108a8.376 8.376 0 0 1-5.215 1.643c-5.322 0-8.894-4.393-8.894-10.18 0-5.894 3.608-10.18 9.144-10.18a8.093 8.093 0 0 1 4.358 1.179v-7.073zm-4.287 16.074c0-3.5-1.214-5.858-4.25-5.858-3.251 0-4.715 2.643-4.715 5.858 0 3.251 1.393 5.858 4.536 5.858 3.251 0 4.429-2.357 4.429-5.858z" style="fill:#172757" transform="translate(1525.786 74.526)"/>
                <path data-name="패스 20744" d="M-1450.662-57.3h4.857v4.287h-4.857zm0 6.966h4.857v19.289h-4.857z" style="fill:#172757" transform="translate(1525.786 74.526)"/>
                <path data-name="패스 20745" d="M-1442.768-56.768h5l6.429 21.146 6.537-21.146h5l-7.858 25.719h-7.252z" style="fill:#172757" transform="translate(1525.786 74.526)"/>
                <path data-name="패스 20746" d="M-1417.119-56.768h4.358l8.5 17.074 8.5-17.074h4.358v25.719h-4.536v-15.36l-7.466 15.36h-1.715l-7.465-15.36v15.36h-4.536z" style="fill:#172757" transform="translate(1525.786 74.526)"/>
                <path data-name="패스 20747" d="m-1387.47-38.908 5.072-.75a5.943 5.943 0 0 0 6.037 4.608c2.393 0 4.893-1.143 4.893-3.286 0-1.036-.5-1.965-2.5-2.572l-6.679-1.965c-2-.571-5.823-1.821-5.823-6.715 0-5.179 4.322-7.716 9.609-7.679 5.322.071 9.037 2.714 10.287 7.536l-5.251.893a5.154 5.154 0 0 0-5.107-3.893c-2.287-.072-4.429 1.071-4.429 2.893 0 1.679 1.785 2.322 3.428 2.751l4.465 1.214c2.644.714 7.109 2 7.109 7.18 0 5.536-5.073 8.179-10.324 8.179-5.717 0-10.001-3.179-10.787-8.394z" style="fill:#172757" transform="translate(1525.786 74.526)"/>
            </g>
        </g>
    </g>
</svg>
