<svg data-name="그룹 2590" xmlns="http://www.w3.org/2000/svg" width="150" height="30.174" viewBox="0 0 150 30.174">
    <path data-name="패스 20759" d="m-1414.147 8.471-13.066 7.544V31.1l13.066 7.543 13.066-7.543V16.015zM-1402.963 20a4.391 4.391 0 0 0-2.7-.9c-2.074 0-3.765 1.665-5.348 2.822l-3.6 2.63-.038.028-1.211.885c-.108.061-.21.132-.323.183a2.3 2.3 0 0 1-2.852-.712 2.33 2.33 0 0 1-.052-2.488 2.36 2.36 0 0 1 2.253-1.065 2.393 2.393 0 0 1 1.921 1.594c.632-.442 1.282-.884 1.914-1.326V11.305l10.039 5.8zm-12.13-.415a4.555 4.555 0 0 0-1.846-.49 4.667 4.667 0 0 0-4.112 2.231 4.634 4.634 0 0 0 .7 5.565 4.417 4.417 0 0 0 3.228 1.337 4.318 4.318 0 0 0 2.028-.529v5.933l-8.778-10 8.778-9.988zm-1.41-7.582-8.828 10V17.1zm-8.828 13.257 8.533 9.68-8.533-4.927zM-1413 35.811v-9.534c.86-.627 1.73-1.242 2.588-1.869.626-.456 1.246-.92 1.853-1.4a13.318 13.318 0 0 1 1.8-1.364 2.235 2.235 0 0 1 1.09-.281 2.227 2.227 0 0 1 1.628.676 2.225 2.225 0 0 1 .676 1.628 2.227 2.227 0 0 1-.676 1.628 2.229 2.229 0 0 1-1.628.676 2.228 2.228 0 0 1-1.628-.676 2.219 2.219 0 0 1-.6-1.072l-1.913 1.363a4.522 4.522 0 0 0 .917 1.309 4.417 4.417 0 0 0 3.228 1.337 4.391 4.391 0 0 0 2.7-.9v2.687z" transform="translate(1427.213 -8.471)" style="fill:#ff671d"/>
    <g data-name="그룹 2589">
        <path data-name="패스 20760" d="m-1385.627 23.545 7.144-6.986.294-.29h-4.264l-8.077 7.289 8.035 7.574.051.046h4.288z" transform="translate(1427.213 -8.471)" style="fill:#231815"/>
        <path data-name="패스 20761" d="M-1338.84 15.836h-3.481v15.385h10.149v-3.462h-6.668z" transform="translate(1427.213 -8.471)" style="fill:#231815"/>
        <path data-name="패스 20762" d="M-1323.787 16.442a5.357 5.357 0 0 0-1.685 1.137 5.342 5.342 0 0 0-1.138 1.687 5.239 5.239 0 0 0-.416 2.071v2.938h3.464v-2.938a1.748 1.748 0 0 1 .138-.7 1.981 1.981 0 0 1 .4-.587 1.833 1.833 0 0 1 .593-.4 1.811 1.811 0 0 1 .715-.141h6.134v-3.482h-6.134a5.222 5.222 0 0 0-2.071.415z" transform="translate(1427.213 -8.471)" style="fill:#ff671d"/>
        <path data-name="패스 20763" d="M-1320.758 25.911a1.811 1.811 0 0 1-.141.713 1.75 1.75 0 0 1-.395.577 2 2 0 0 1-.594.4 1.73 1.73 0 0 1-.7.139h-16.478v3.483h16.478a5.243 5.243 0 0 0 2.071-.415 5.384 5.384 0 0 0 1.688-1.137 5.4 5.4 0 0 0 1.136-1.687 5.235 5.235 0 0 0 .415-2.071v-2.94h-3.482z" transform="translate(1427.213 -8.471)" style="fill:#231815"/>
        <path data-name="사각형 2275" transform="translate(113.447 7.365)" style="fill:#231815" d="M0 0h3.461v15.384H0z"/>
        <path data-name="패스 20764" d="M-1302.564 16.417a7.648 7.648 0 0 0-2.443 1.654 7.828 7.828 0 0 0-1.638 2.447 7.551 7.551 0 0 0-.6 3 7.543 7.543 0 0 0 .6 3 7.692 7.692 0 0 0 1.64 2.44 7.877 7.877 0 0 0 2.438 1.652 7.455 7.455 0 0 0 3 .612h4.134v-7.973h-3.461v4.489h-.673a4.14 4.14 0 0 1-1.643-.327 4.273 4.273 0 0 1-1.345-.906 4.246 4.246 0 0 1-.905-1.346 4.137 4.137 0 0 1-.328-1.641 4.146 4.146 0 0 1 .328-1.642 4.279 4.279 0 0 1 .9-1.345 4.282 4.282 0 0 1 1.348-.906 4.135 4.135 0 0 1 1.641-.327h4.134v-3.483h-4.134a7.553 7.553 0 0 0-2.993.602z" transform="translate(1427.213 -8.471)" style="fill:#231815"/>
        <path data-name="패스 20765" d="M-1277.213 16.048h-3.484v5.377l3.484 5.193z" transform="translate(1427.213 -8.471)" style="fill:#ff671d"/>
        <path data-name="패스 20766" d="M-1288.712 15.836h-3.21v15.385h3.462v-8.753l5.849 8.753h4.177z" transform="translate(1427.213 -8.471)" style="fill:#231815"/>
        <path data-name="패스 20767" d="M-1347.071 18.675a7.158 7.158 0 0 0-5.23-2.167c-3.361 0-6.1 2.7-8.666 4.573l-5.829 4.261-.062.045-1.961 1.434c-.175.1-.34.215-.524.3a3.73 3.73 0 0 1-4.62-1.155 3.772 3.772 0 0 1-.085-4.03 3.825 3.825 0 0 1 3.65-1.726 3.877 3.877 0 0 1 3.113 2.582l3.073-2.148a7.561 7.561 0 0 0-6.351-4.137 7.56 7.56 0 0 0-6.662 3.614 7.507 7.507 0 0 0 1.137 9.016 7.155 7.155 0 0 0 5.231 2.166 8.112 8.112 0 0 0 5.059-1.978c1.9-1.452 3.878-2.805 5.808-4.214a90.756 90.756 0 0 0 3-2.271 21.634 21.634 0 0 1 2.922-2.21 3.618 3.618 0 0 1 1.766-.456 3.612 3.612 0 0 1 2.638 1.095 3.61 3.61 0 0 1 1.095 2.638 3.61 3.61 0 0 1-1.095 2.638 3.61 3.61 0 0 1-2.638 1.1 3.609 3.609 0 0 1-2.639-1.1 3.618 3.618 0 0 1-.978-1.737l-3.1 2.209a7.361 7.361 0 0 0 1.487 2.12 7.152 7.152 0 0 0 5.23 2.166 7.154 7.154 0 0 0 5.23-2.166 7.156 7.156 0 0 0 2.166-5.23 7.156 7.156 0 0 0-2.165-5.232z" transform="translate(1427.213 -8.471)" style="fill:#231815"/>
        <path data-name="사각형 2276" style="fill:#231815" d="M0 0h3.462v15.406H0z" transform="translate(32.358 7.344)"/>
    </g>
</svg>
