<svg xmlns="http://www.w3.org/2000/svg" xmlns:xlink="http://www.w3.org/1999/xlink" width="30.001" height="29.939" viewBox="0 0 30.001 29.939">
    <defs>
        <linearGradient id="o4e2blyxda" x1="1.608" y1="3.938" x2=".156" y2="-.577" gradientUnits="objectBoundingBox">
            <stop offset="0" stop-color="#1837d8"/>
            <stop offset=".51" stop-color="#00c1ff"/>
            <stop offset="1" stop-color="#70e6ff"/>
        </linearGradient>
        <linearGradient id="3ji529zyob" x1=".623" y1=".923" x2="-.731" y2="-1.301" xlink:href="#o4e2blyxda"/>
        <linearGradient id="yictfyco8c" x1=".569" y1=".776" x2="-2.27" y2="-14.098" xlink:href="#o4e2blyxda"/>
        <linearGradient id="q7mwlv06jd" x1=".758" y1="1.295" x2="-1.483" y2="-5.518" xlink:href="#o4e2blyxda"/>
        <linearGradient id="f9vtlx0y7e" x1="2.133" y1="1.966" x2="-3.714" y2="-3.581" xlink:href="#o4e2blyxda"/>
        <linearGradient id="xiumslwjuf" x1="1.25" y1="1.972" x2="-.55" y2="-1.703" xlink:href="#o4e2blyxda"/>
        <linearGradient id="2pdh4axzsg" x1="2.624" y1="4.881" x2="-.726" y2="-1.991" xlink:href="#o4e2blyxda"/>
        <linearGradient id="z901ca0mnh" x1="1.483" y1="2.136" x2="-1.53" y2="-3.306" xlink:href="#o4e2blyxda"/>
    </defs>
    <g data-name="Layer 3">
        <path data-name="패스 20643" d="M9.06 5.53v19.25l16.41-10.25z" style="fill-rule:evenodd;fill:#fff" transform="translate(0 .039)"/>
        <path data-name="패스 20644" d="m12.18 8.46 9 5.17c.84.49 1.25.91 1.26 1.32a1 1 0 0 1-.29.6c1-.9.08-1.72-.75-2.21l-6.6-3.79-2.4-1.37c-1.15-.66-2-.45-2.21.47.24-.81.9-.81 2-.19z" style="fill:url(#o4e2blyxda);fill-rule:evenodd" transform="translate(0 .039)"/>
        <path data-name="패스 20645" d="M10.08 20.3V9.82c-.68-.1-1 .38-1 1.57v10.7a3.1 3.1 0 0 0 .16 1.09c.29.66.92.62 1.95 0l9-5.16c.83-.48 1.25-.9 1.26-1.32a.78.78 0 0 0-.21-.49l-9 5.17c-1.42.81-2.1.56-2.1-1.14z" style="fill:url(#3ji529zyob);fill-rule:evenodd" transform="translate(0 .039)"/>
        <path data-name="패스 20646" d="M24.47 23.84a12.13 12.13 0 0 1-10.65 1.84c-3.4-1-4.58 2-3 3.65a15.22 15.22 0 0 0 4.18.57 15 15 0 0 0 11.05-4.84c.73-.87-.31-2.15-1.58-1.22z" style="fill:url(#yictfyco8c);fill-rule:evenodd" transform="translate(0 .039)"/>
        <path data-name="패스 20647" d="M13.82 25.68a12.13 12.13 0 0 0 10.65-1.84c1.27-.93 2.31.35 1.58 1.22a14.83 14.83 0 0 0 2.34-3.37c1.8-5-3-7.74-7.2-5.45a.78.78 0 0 1 .21.49c0 .42-.43.84-1.26 1.32l-9 5.16c-1 .59-1.66.63-1.95 0a3.92 3.92 0 0 0 1.64 6.15c-1.62-1.61-.44-4.68 3-3.65z" style="fill:url(#q7mwlv06jd);fill-rule:evenodd" transform="translate(0 .039)"/>
        <path data-name="패스 20648" d="M9.06 22.09v-9.88c-3.14 1.85-5.58 4.29-6 7.84a8 8 0 0 0 1.62 5.75 15 15 0 0 0 6.18 3.53 3.92 3.92 0 0 1-1.64-6.15 3.1 3.1 0 0 1-.16-1.09z" style="fill:url(#f9vtlx0y7e);fill-rule:evenodd" transform="translate(0 .039)"/>
        <path data-name="패스 20649" d="M3.1 20.05c.38-3.55 2.82-6 6-7.84v-.82c0-1.19.34-1.67 1-1.57V9.6a3.09 3.09 0 0 1 .11-.95c.24-.92 1.06-1.13 2.21-.47l2.37 1.37c4.7-1.84 9.33-3.18 10.7-5.31A15 15 0 0 0 0 15a14.85 14.85 0 0 0 4.68 10.8 8 8 0 0 1-1.58-5.75zM12.78 4.1C6.77 5.7 2 10.15 1.17 15.46 1 8.3 6.26 2.19 12.86 1.66c2.8-.23 2.56 1.75-.08 2.44z" style="fill:url(#xiumslwjuf);fill-rule:evenodd" transform="translate(0 .039)"/>
        <path data-name="패스 20650" d="M1.17 15.46C2 10.15 6.77 5.7 12.78 4.1c2.64-.69 2.88-2.67.08-2.44C6.26 2.19 1 8.3 1.17 15.46z" style="fill:url(#2pdh4axzsg);fill-rule:evenodd" transform="translate(0 .039)"/>
        <path data-name="패스 20651" d="m14.77 9.55 6.6 3.79c.83.49 1.76 1.31.75 2.21a3.85 3.85 0 0 1-.93.69c4.22-2.29 9 .41 7.2 5.45a14.92 14.92 0 0 0-2.92-17.45c-1.37 2.13-6 3.47-10.7 5.31z" style="fill:url(#z901ca0mnh);fill-rule:evenodd" transform="translate(0 .039)"/>
    </g>
</svg>
