<svg xmlns="http://www.w3.org/2000/svg" width="30" height="29.899" viewBox="0 0 30 29.899">
    <g data-name="그룹 2594">
        <path data-name="패스 20777" d="m2037.8 843.407 8.966-5.17a.16.16 0 0 0 .044-.026 3.964 3.964 0 0 0 .928-.687 1 1 0 0 0 .291-.6c-.009-.414-.424-.837-1.263-1.321l-8.966-5.169c-1.1-.626-1.75-.626-2 .185a3.468 3.468 0 0 0-.106.951v10.7c.006 1.701.685 1.947 2.106 1.137z" style="fill:#06f" transform="translate(-2025.62 -821.971)"/>
        <path data-name="패스 20778" d="M2051.088 826.216a14.971 14.971 0 1 0-14.611 25.082 15.271 15.271 0 0 0 4.143.572 14.981 14.981 0 0 0 11.051-4.843 15.152 15.152 0 0 0 2.341-3.365 14.917 14.917 0 0 0-2.924-17.446zm-4.32 12.021-8.966 5.17c-1.423.81-2.1.564-2.1-1.136v-10.7a3.468 3.468 0 0 1 .106-.951c.247-.811.9-.811 2-.185l8.966 5.169c.839.484 1.254.907 1.263 1.321a1 1 0 0 1-.291.6 3.964 3.964 0 0 1-.928.687.16.16 0 0 1-.05.025z" style="fill:#fff" transform="translate(-2025.62 -821.971)"/>
    </g>
</svg>
