<svg xmlns="http://www.w3.org/2000/svg" viewBox="0 0 30 29.9"><defs><style>.cls-1{fill:#fff;}.cls-2{fill:#5ae29e;}</style></defs><title>Asset 17</title><g id="Layer_2" data-name="Layer 2"><g id="Layer_3" data-name="Layer 3"><ellipse class="cls-1" cx="15" cy="14.95" rx="15" ry="14.95"/><path class="cls-2" d="M21.31,7.94,8,13.74a.84.84,0,0,0,0,1.53l2.7,1.4,8-5.6a.11.11,0,0,1,.17.09l-6.73,6.43a.83.83,0,0,0-.26.61v3a.84.84,0,0,0,1.56.44L15.08,19l3.46,1.78a.85.85,0,0,0,1.21-.55L22.48,8.92A.85.85,0,0,0,21.31,7.94Z"/></g></g></svg>