<svg xmlns="http://www.w3.org/2000/svg" width="10" height="10" viewBox="0 0 10 10">
  <path id="Icon_awesome-save" data-name="Icon awesome-save" d="M9.686,4.436,7.814,2.564a1.071,1.071,0,0,0-.758-.314H1.071A1.071,1.071,0,0,0,0,3.321v7.857A1.071,1.071,0,0,0,1.071,12.25H8.929A1.071,1.071,0,0,0,10,11.179V5.194a1.071,1.071,0,0,0-.314-.758ZM5,10.821A1.429,1.429,0,1,1,6.429,9.393,1.429,1.429,0,0,1,5,10.821Zm2.143-6.8V6.268a.268.268,0,0,1-.268.268H1.7a.268.268,0,0,1-.268-.268V3.946A.268.268,0,0,1,1.7,3.679H6.8a.268.268,0,0,1,.189.078l.078.078a.268.268,0,0,1,.078.189Z" transform="translate(0 -2.25)" fill="#fff"/>
</svg>
