<svg xmlns="http://www.w3.org/2000/svg" width="20.082" height="20.001" viewBox="0 0 20.082 20.001">
    <g data-name="그룹 2634">
        <g data-name="그룹 2633">
            <path data-name="패스 20786" d="M494.778 192.615a.548.548 0 0 0-.548.548v3.062l-2.032 2.032a.548.548 0 1 0 .775.775l2.192-2.193a.546.546 0 0 0 .161-.387v-3.289a.548.548 0 0 0-.548-.548z" style="fill:#5a5a5a" transform="translate(-484.772 -185.77)"/>
            <path data-name="패스 20787" d="M490.522 186.687a3.128 3.128 0 0 0-4.424 0l-.41.41a3.128 3.128 0 0 0 0 4.423.275.275 0 0 0 .388 0l4.446-4.446a.273.273 0 0 0 0-.387zm5.352 1.624v-.356a1.37 1.37 0 0 0-2.741 0v.439a8.219 8.219 0 0 0-4.239 13.8l-.9 1.807a1.225 1.225 0 1 0 2.192 1.1l.7-1.4a8.23 8.23 0 0 0 7.79 0l.7 1.4a1.225 1.225 0 1 0 2.192-1.1l-.9-1.807a8.212 8.212 0 0 0-4.788-13.879zm-1.1 13.622a5.481 5.481 0 1 1 5.482-5.481 5.488 5.488 0 0 1-5.478 5.481zm9.16-14.836-.41-.41a3.126 3.126 0 0 0-4.423 0 .273.273 0 0 0 0 .387l4.445 4.446a.275.275 0 0 0 .388 0 3.128 3.128 0 0 0 .004-4.42z" style="fill:#5a5a5a" transform="translate(-484.772 -185.77)"/>
        </g>
    </g>
</svg>
