<svg xmlns="http://www.w3.org/2000/svg" xmlns:xlink="http://www.w3.org/1999/xlink" width="350.001" height="151.07" viewBox="0 0 350.001 151.07">
  <defs>
    <filter id="합치기_1" x="0" y="0" width="350.001" height="151.07" filterUnits="userSpaceOnUse">
      <feOffset dx="2" dy="2" input="SourceAlpha"/>
      <feGaussianBlur stdDeviation="3" result="blur"/>
      <feFlood flood-color="#dfe0e2" flood-opacity="0.38"/>
      <feComposite operator="in" in2="blur"/>
      <feComposite in="SourceGraphic"/>
    </filter>
  </defs>
  <g transform="matrix(1, 0, 0, 1, 0, 0)" filter="url(#합치기_1)">
    <g id="합치기_1-2" data-name="합치기 1" transform="translate(8487 1287)" fill="#fff">
      <path d="M -8157.99951171875 -1147.42919921875 L -8470 -1147.42919921875 C -8475.23828125 -1147.42919921875 -8479.5 -1151.691162109375 -8479.5 -1156.9296875 L -8479.5 -1262.928955078125 C -8479.5 -1268.16748046875 -8475.23828125 -1272.429321289062 -8470 -1272.429321289062 L -8459.9990234375 -1272.429321289062 L -8459.7919921875 -1272.429321289062 L -8459.6455078125 -1272.575805664062 L -8452.9296875 -1279.292114257812 L -8446.2109375 -1272.57568359375 L -8446.064453125 -1272.429321289062 L -8445.857421875 -1272.429321289062 L -8157.99951171875 -1272.429321289062 C -8152.7607421875 -1272.429321289062 -8148.4990234375 -1268.16748046875 -8148.4990234375 -1262.928955078125 L -8148.4990234375 -1156.9296875 C -8148.4990234375 -1151.691162109375 -8152.7607421875 -1147.42919921875 -8157.99951171875 -1147.42919921875 Z" stroke="none"/>
      <path d="M -8157.99951171875 -1147.92919921875 C -8153.03662109375 -1147.92919921875 -8148.9990234375 -1151.966796875 -8148.9990234375 -1156.9296875 L -8148.9990234375 -1262.928955078125 C -8148.9990234375 -1267.891723632812 -8153.03662109375 -1271.929321289062 -8157.99951171875 -1271.929321289062 L -8446.271484375 -1271.929321289062 L -8452.9296875 -1278.585083007812 L -8459.5849609375 -1271.929321289062 L -8470 -1271.929321289062 C -8474.962890625 -1271.929321289062 -8479 -1267.891723632812 -8479 -1262.928955078125 L -8479 -1156.9296875 C -8479 -1151.966796875 -8474.962890625 -1147.92919921875 -8470 -1147.92919921875 L -8157.99951171875 -1147.92919921875 M -8157.99951171875 -1146.92919921875 L -8470 -1146.92919921875 C -8475.5224609375 -1146.92919921875 -8480 -1151.406982421875 -8480 -1156.9296875 L -8480 -1262.928955078125 C -8480 -1268.451538085938 -8475.5224609375 -1272.929321289062 -8470 -1272.929321289062 L -8459.9990234375 -1272.929321289062 L -8452.9296875 -1279.999145507812 L -8445.857421875 -1272.929321289062 L -8157.99951171875 -1272.929321289062 C -8152.4765625 -1272.929321289062 -8147.9990234375 -1268.451538085938 -8147.9990234375 -1262.928955078125 L -8147.9990234375 -1156.9296875 C -8147.9990234375 -1151.406982421875 -8152.4765625 -1146.92919921875 -8157.99951171875 -1146.92919921875 Z" stroke="none" fill="#e7e7e7"/>
    </g>
  </g>
</svg>
