<svg xmlns="http://www.w3.org/2000/svg" width="30" height="30" viewBox="0 0 30 30">
    <g data-name="그룹 2659">
        <g style="fill:#fff;stroke-miterlimit:10">
            <path d="M15 29.5a14.405 14.405 0 0 1-10.253-4.247A14.405 14.405 0 0 1 .5 15c0-3.873 1.508-7.514 4.247-10.253A14.405 14.405 0 0 1 15 .5c3.873 0 7.514 1.508 10.253 4.247A14.405 14.405 0 0 1 29.5 15c0 3.873-1.508 7.514-4.247 10.253A14.405 14.405 0 0 1 15 29.5z" style="stroke:none"/>
            <path d="M15 1c-3.74 0-7.255 1.456-9.9 4.1A13.908 13.908 0 0 0 1 15c0 3.74 1.456 7.255 4.1 9.9A13.908 13.908 0 0 0 15 29c3.74 0 7.255-1.456 9.9-4.1A13.908 13.908 0 0 0 29 15c0-3.74-1.456-7.255-4.1-9.9A13.908 13.908 0 0 0 15 1m0-1c8.284 0 15 6.716 15 15 0 8.284-6.716 15-15 15-8.284 0-15-6.716-15-15C0 6.716 6.716 0 15 0z" style="fill:#ededed;stroke:none"/>
        </g>
        <path data-name="패스 20790" d="M9848.476 1448.8h10" transform="rotate(-45 3203.484 12607.992)" style="fill:none;stroke:#5a5a5a;stroke-linecap:round;stroke-width:2px"/>
        <path data-name="패스 20791" d="M0 0h10" transform="rotate(-135 13.107 5.429)" style="fill:none;stroke:#5a5a5a;stroke-linecap:round;stroke-width:2px"/>
    </g>
</svg>
